<?xml version="1.0" encoding="UTF-8"?> <!-- Generator: Adobe Illustrator 28.2.0, SVG Export Plug-In . SVG Version: 6.00 Build 0) --> <svg xmlns="http://www.w3.org/2000/svg" xmlns:xlink="http://www.w3.org/1999/xlink" baseProfile="tiny" id="Layer_1" x="0px" y="0px" viewBox="0 0 292.2851868 152.5651855" overflow="visible" xml:space="preserve"> <g> <path fill="#89181A" d="M9.3911514,81.8798828c-2.3774414-0.9199219-4.409668-2.5297852-6.0947266-4.8300781 c-0.3076172-0.4599609-0.7475586-1.034668-1.322754-1.7246094C1.3984755,74.6347656,0.9385146,73.9648438,0.5937881,73.3125 c-0.3452148-0.6503906-0.5175781-1.3603516-0.5175781-2.1274414c0-0.152832-0.0180664-0.3452148-0.0576172-0.5751953 c-0.0375977-0.2299805-0.0180664-0.5351562,0.0576172-0.9199219c0.0756836-0.4599609,0.2675781-0.8623047,0.5751953-1.2075195 c0.3051758-0.3447266,0.6899413-0.5175781,1.1499023-0.5175781h0.3447267c0.6899414,0,1.2651367,0.1547852,1.7250977,0.4599609 c0.9199219,1.2275391,1.4179688,2.2246094,1.4951172,2.9902344c0.2299805,2.4545898,1.7250977,4.1020508,4.4848633,4.9448242 c2.6826172,0.7675781,5.0600586,1.1499023,7.1298828,1.1499023c2.300293,0,4.6381836-0.4204102,7.0151367-1.2646484 l0.3452148-0.1152344c4.7524414-0.8427734,8.7001953-3.7553711,11.8447266-8.7397461 c2.4526367-3.9858398,3.6801758-7.5126953,3.6801758-10.5800781c0-1.6098633-0.3452148-3.2578125-1.0351562-4.9453125 c-1.2270508-2.6826172-2.7993164-4.5996094-4.7148438-5.75c-0.5371094-0.3051758-0.9970703-0.4599609-1.3798828-0.4599609 c-0.3847656,0-0.8051758,0.2695312-1.2651367,0.8051758c-1.4575195,1.9946289-2.3393555,3.2597656-2.6450195,3.7949219 c-1.9946289,3.4501953-3.6420898,6.4599609-4.9448242,9.027832c-1.3046875,2.5693359-2.3774414,5.2324219-3.2202148,7.9921875 c-0.1542969,0.4599609-0.3071289,0.8051758-0.4599609,1.0351562c-0.3847656,0.6142578-0.8051758,0.9199219-1.2651367,0.9199219 c-0.2299805,0-0.5371094-0.1152344-0.9199219-0.3452148c-1.4570312-1.3027344-2.1850586-2.7597656-2.1850586-4.3696289 c0-0.765625,0.152832-1.4555664,0.4599609-2.0703125c0.765625-1.7626953,2.300293-4.9824219,4.6000977-9.659668 c0.9956055-1.9155273,2.3754883-4.2929688,4.1401367-7.1303711c0.3828125-0.7651367,0.574707-1.3798828,0.574707-1.8398438 c0-0.5356445-0.1542969-1.0727539-0.4599609-1.6098633c-0.4599609-0.8427734-0.6899414-2.0703125-0.6899414-3.6801758v-0.2299805 c0-0.5351562,0.1904297-0.9575195,0.5751953-1.2651367c0.3828125-0.3051758,0.8046875-0.3823242,1.2651367-0.2299805 c0.8422852,0.3076172,1.6098633,0.4599609,2.2998047,0.4599609c1.0727539,0,1.9731445-0.3251953,2.7026367-0.9770508 c0.7275391-0.6508789,1.4375-1.6674805,2.1274414-3.0478516c0.5351562-0.9951172,1.2651367-2.050293,2.1850586-3.1625977 c0.9199219-1.1103516,1.5327148-1.8579102,1.8398438-2.2421875c2.2998047-3.3730469,3.6025391-5.2504883,3.9101562-5.6352539 c1.5327148-1.9155273,2.4902344-3.0654297,2.875-3.449707c0.4599609-0.4599609,0.8803711-0.6899414,1.2646484-0.6899414 c0.612793,0,1.0727539,0.3842773,1.3803711,1.1499023c0.3823242,0.6899414,0.6699219,1.3046875,0.8623047,1.8398438 c0.1904297,0.5371094,0.362793,0.9594727,0.5175781,1.2651367c0.152832,0.4599609,0.2299805,0.8051758,0.2299805,1.0351562 c0,0.5371094-0.2695312,1.1499023-0.8051758,1.8398438l-5.75,7.0151367l-1.7250977,2.5297852 c-0.0771484,0.0771484-0.0571289,0.1923828,0.0576172,0.3452148c0.1152344,0.1542969,0.2480469,0.2695312,0.402832,0.3447266 c0.0751953,0.0771484,0.1904297,0.097168,0.3447266,0.0576172c0.152832-0.0375977,0.2675781-0.0576172,0.3452148-0.0576172 c3.2954102-0.765625,6.1323242-1.5327148,8.5097656-2.2998047c2.3754883-0.765625,4.6376953-1.7626953,6.7851562-2.9902344 c2.9897461-1.4555664,5.5576172-3.6401367,7.7050781-6.5546875c1.2250977-1.6855469,1.9155273-3.9858398,2.0698242-6.9003906 v-0.1147461c0-0.5356445-0.3452148-1.2255859-1.0351562-2.0698242c-0.6142578-0.6904297-1.3222656-1.2832031-2.1274414-1.7827148 c-0.8046875-0.4975586-1.6494141-0.9775391-2.5297852-1.4375c-0.8823242-0.4599609-1.5922852-0.8051758-2.1274414-1.0351562 C52.6313858,7.2451172,45.8462296,5.75,38.2563858,5.75c-1.3046875,0-3.2597656,0.0771484-5.8652344,0.2299805 C28.5566788,6.3647461,25.0312881,7.2451172,21.8110733,8.625c-0.5371094,0.2299805-0.9394531,0.4418945-1.2075195,0.6323242 C20.3340225,9.449707,20.20121,9.7373047,20.20121,10.1201172c0,0.4599609,0.0375977,0.8823242,0.1152344,1.2646484 c0.1523438,0.6147461,0.2299805,1.1123047,0.2299805,1.4951172c0,0.5375977-0.2299805,0.9594727-0.6904297,1.2651367 C19.7016983,14.2993164,19.5112686,14.375,19.2812881,14.375c-0.5371094,0-1.2275391-0.5751953-2.0703125-1.7250977 c-1.2270508-1.7626953-2.2241211-3.3725586-2.9897461-4.8300781C13.7612686,6.9770508,13.5312881,6.2871094,13.5312881,5.75 c0-0.9199219,0.8046875-1.6098633,2.4150391-2.0698242c5.75-1.7626953,10.4648438-2.7602539,14.1450195-2.9902344 c0.6899414,0,1.3027344-0.0375977,1.8398438-0.1147461c0.5356445-0.0756836,0.9956055-0.152832,1.3798828-0.2299805 c0.4599609-0.0756836,1.0351562-0.152832,1.7250977-0.2299805C35.7261124,0.0395508,36.5312881,0,37.45121,0 c0.8427734,0,2.3378906,0.0771484,4.4848633,0.2299805l2.300293,0.1152344 c6.1323242,0.8442383,12.2651367,3.1049805,18.3999023,6.784668c3.2197266,1.9946289,5.8251953,5.0224609,7.8198242,9.0849609 c0.5356445,1.074707,0.8051758,2.262207,0.8051758,3.5649414c0,1.3046875-0.3071289,2.6845703-0.9199219,4.1401367 c-1.2275391,2.9902344-3.1049805,5.3295898-5.6352539,7.0151367c-1.2270508,0.7670898-2.109375,1.3798828-2.6450195,1.8398438 c-1.6870117,1.2275391-3.3349609,2.262207-4.9448242,3.1049805c-2.5302734,1.2275391-5.175293,2.2426758-7.9350586,3.0478516 c-2.7597656,0.8046875-5.9799805,1.6293945-9.6601562,2.472168c-0.2299805,0.0771484-0.4995117,0.1152344-0.8046875,0.1152344 c-0.3076172,0-0.5375977,0.0395508-0.6899414,0.1147461c-0.3847656,0.2299805-0.5751953,0.6147461-0.5751953,1.1499023 c0.0756836,0.3076172,0.3828125,0.7299805,0.9199219,1.2651367c0.765625,0.7675781,1.4750977,1.6875,2.1274414,2.7602539 c0.6503906,1.0742188,1.2451172,2.1469727,1.7827148,3.2197266c1.3798828,2.4545898,2.0698242,5.175293,2.0698242,8.1650391 c0,2.3774414-0.4599609,4.7924805-1.3798828,7.2451172c-2.2246094,6.0571289-5.8652344,10.5800781-10.9248047,13.5698242 c-4.6772461,2.8374023-9.5073242,4.2548828-14.4902344,4.2548828 C14.4888077,83.2597656,11.7666397,82.7998047,9.3911514,81.8798828z"></path> <path fill="#89181A" d="M70.341835,70.5522461c-0.7675781-0.4975586-1.1499023-1.2827148-1.1499023-2.3574219 c0-1.8398438,1.0722656-4.3696289,3.2197266-7.5898438c-0.5371094-0.152832-1.5722656,0.2299805-3.1049805,1.1499023 c-1.534668,0.9199219-2.6074219,1.534668-3.2202148,1.840332c-1.1499023,0.5371094-2.875,1.6494141-5.1748047,3.3349609 c-1.2270508,0.9199219-2.1850586,1.6098633-2.875,2.0698242c-1.6870117,1.074707-2.7597656,1.7250977-3.2197266,1.9550781 c-0.4604492,0.1542969-0.8051758,0.2299805-1.0351562,0.2299805c-1.0727539,0-1.8779297-0.5751953-2.4150391-1.7250977 c-0.4599609-0.9199219-0.6899414-1.8398438-0.6899414-2.7597656c0-1.4555664,0.6523438-3.3354492,1.9550781-5.6352539 c0.9970703-1.9155273,2.7202148-4.6376953,5.1748047-8.1650391l7.0151367-9.5449219 c0.6899414-0.9956055,1.7626953-2.2602539,3.2197266-3.7949219l0.5751953-0.3452148 c0.0751953-0.0751953,0.1723633-0.0952148,0.2875977-0.0571289c0.1147461,0.0395508,0.2099609,0.0571289,0.2875977,0.0571289 c0.6899414,0.2299805,1.2646484,0.5175781,1.7246094,0.862793c0.4599609,0.3447266,0.9580078,0.7475586,1.4951172,1.2075195 c0.0756836,0,0.1152344,0.0771484,0.1152344,0.2299805l-0.1152344,0.2299805l-1.6098633,1.9550781 c-2.0703125,2.684082-4.4848633,5.597168-7.2451172,8.7397461c-1.8398438,1.9946289-3.1445312,3.5649414-3.9101562,4.7148438 c-0.1542969,0.2299805-0.6518555,1.074707-1.4946289,2.5302734c-0.0776367,0.1542969-0.3076172,0.4599609-0.6904297,0.9199219 c-0.3842773,0.4599609-0.4995117,0.9970703-0.3447266,1.6098633l4.8300781-2.875 c2.7597656-1.8398438,5.2124023-3.2954102,7.3598633-4.3696289c2.6054688-1.1503906,4.6000977-2.1279297,5.9799805-2.9326172 c1.3798828-0.8051758,2.7207031-1.9355469,4.0249023-3.3925781c0.765625-0.8427734,1.4951172-1.800293,2.1850586-2.875 c1.1499023-1.8398438,2.3378906-3.2578125,3.5649414-4.2548828c0.9199219-0.765625,2.4907227-1.0727539,4.715332-0.9199219 c0.3823242,0,0.6503906,0.0771484,0.8046875,0.2299805c0.3056641,0.0771484,0.4599609,0.3447266,0.4599609,0.8046875 c0,0.3076172-0.1147461,0.6523438-0.3447266,1.0351562c-0.6899414,1.4570312-1.5146484,2.8173828-2.4726562,4.0825195 c-0.9594727,1.2651367-2.2426758,2.7797852-3.8525391,4.5424805c-0.2299805,0.2299805-1.6494141,1.9946289-4.2548828,5.2900391 c-0.9199219,1.3041992-1.9174805,2.6450195-2.9902344,4.0249023c-0.3842773,0.5371094-0.574707,0.9970703-0.574707,1.3798828 c0,0.3847656,0.1328125,0.6523438,0.4023438,0.8051758c0.2675781,0.1542969,0.6323242,0.1147461,1.0927734-0.1152344 c1.0727539-0.4599609,2.2421875-1.1298828,3.5073242-2.012207c1.2651367-0.8803711,2.1650391-1.5131836,2.7026367-1.8974609 l5.2900391-3.3349609c1.9926758-1.3803711,4.9824219-3.3730469,8.9697266-5.9799805L99.3218155,48.875 c0.2299805-0.152832,0.6699219-0.4023438,1.3222656-0.7475586c0.6503906-0.3447266,1.0927734-0.4404297,1.3227539-0.2875977 c0.5351562,0.3076172,0.8046875,0.8051758,0.8046875,1.4951172c0,0.6147461-0.1918945,1.2270508-0.574707,1.8398438 c-0.3847656,0.6147461-0.8447266,1.1123047-1.3803711,1.4951172c-0.4599609,0.4599609-5.8647461,4.3325195-16.2148438,11.6152344 l-5.0600586,3.5649414l-2.9897461,2.1850586c-0.6899414,0.4599609-1.4575195,0.8046875-2.300293,1.034668 c-0.3071289,0.0776367-0.7294922,0.1152344-1.2646484,0.1152344C71.989296,71.262207,71.1069717,71.0522461,70.341835,70.5522461z"></path> <path fill="#89181A" d="M93.1675186,68.7124023c-0.5751953-1.0351562-0.8623047-2.1650391-0.8623047-3.3925781l0.1147461-1.034668 c-0.0751953-1.7626953,0.4599609-3.8330078,1.6098633-6.2099609l1.9550781-3.5654297 c0.9956055-2.1450195,2.0307617-4.0625,3.1049805-5.75c2.300293-3.6796875,4.2158203-6.3623047,5.75-8.0498047 c0.9956055-0.9956055,1.840332-1.7431641,2.5302734-2.2426758c0.6899414-0.4975586,1.4946289-0.7470703,2.4150391-0.7470703 c0.4599609,0,0.9951172,0.1147461,1.6098633,0.3447266c0.3056641,0.1547852,0.6503906,0.2875977,1.0351562,0.4023438 c0.3823242,0.1152344,0.7080078,0.2695312,0.9775391,0.4604492c0.2675781,0.1918945,0.5170898,0.4794922,0.7470703,0.8623047 c0.0756836,0.0771484,1.8007812,0.1147461,5.175293,0.1147461c2.9897461-0.0751953,5.5-0.1523438,7.5322266-0.2299805 c2.0307541-0.0751953,3.3154221-0.1147461,3.8525314-0.1147461c0.9956055,0,1.4951172,0.3071289,1.4951172,0.9199219 c0,0.4599609-0.3271484,0.9775391-0.9775391,1.5527344c-0.6523438,0.574707-1.2075195,0.9018555-1.6674805,0.9770508 l-3.3349533,0.2304688c-5.5200195,0.2299805-8.0893555,0.3447266-7.7050781,0.3447266 c-1.4570312,0-2.3969727,0.0576172-2.8173828,0.1723633c-0.4223633,0.1152344-0.7099609,0.402832-0.8623047,0.862793 c-0.1547852,0.4599609-0.3847656,1.5722656-0.6904297,3.3349609c-0.3842773,1.7646484-1.0166016,3.4697266-1.8974609,5.1171875 c-0.8823242,1.6499023-2.012207,3.5473633-3.3925781,5.6928711c-1.1499023,1.6098633-3.0292969,3.8720703-5.6347656,6.784668 c-1.6875,1.9174805-2.5693359,2.9145508-2.6450195,2.9902344l-0.2299805,0.3447266 c-1.3046875,1.3046875-2.6074219,1.9550781-3.9101562,1.9550781c-0.5371094,0-0.9199219-0.0375977-1.1499023-0.1147461 C94.4521866,70.4194336,93.7427139,69.7475586,93.1675186,68.7124023z M100.0098038,61.6401367 c3.3730469-3.2202148,6.362793-7.2827148,8.9702148-12.1899414c0.3056641-0.5356445,0.5551758-1.1879883,0.7475586-1.9550781 c0.1904297-0.765625,0.3251953-1.3027344,0.4023438-1.6103516v-0.1147461c0-0.3056641-0.1542969-0.6899414-0.4599609-1.1499023 c-0.4599609,0.1542969-0.7670898,0.3071289-0.9199219,0.4599609c-2.0698242,1.9946289-3.8525391,4.1791992-5.3476562,6.5546875 c-1.4946289,2.3774414-3.1245117,5.3295898-4.887207,8.8549805c-0.1547852,0.4604492-0.2299805,0.8447266-0.2299805,1.1503906 l0.4599609,0.6899414C99.5102921,61.9472656,99.9326553,61.7172852,100.0098038,61.6401367z"></path> <path fill="#89181A" d="M138.1308899,70.3222656c-0.3452148-0.8803711-0.5175781-1.7822266-0.5175781-2.7021484 c0-0.8427734,0.1147461-1.4179688,0.3447266-1.7250977c2.6054688-4.7529297,4.4458008-8.3950195,5.5200195-10.9248047 c1.4555664-2.8359375,2.875-5.4804688,4.2553711-7.9350586l0.1147461-0.4599609 c0-0.3828125-0.1923828-0.6328125-0.574707-0.7475586c-0.3847656-0.1152344-0.8447266-0.0952148-1.3803711,0.0571289 c-7.5898438,4.9077148-12.9946289,8.5874023-16.2148438,11.0400391c-0.4599609,0.3847656-1.3422852,1.0351562-2.6450119,1.9550781 c-1.3046875,0.9199219-2.3774414,1.9174805-3.2202148,2.9902344c-0.5371094,0.6899414-1.1118164,1.6870117-1.7246094,2.9897461 c-1.074707,2.1474609-2.0322266,3.5649414-2.875,4.2548828c-0.4599609,0.3847656-1.0351562,0.5751953-1.7250977,0.5751953 c-0.5356445,0-1.0532227-0.1147461-1.5527344-0.3447266c-0.4975586-0.2304688-0.8227539-0.4604492-0.9775391-0.6904297 c-0.3823242-0.6123047-0.574707-1.4174805-0.574707-2.4150391c0-1.1499023,0.2695312-2.375,0.8046875-3.6796875 c0.3847656-0.9199219,1.1123047-2.2226562,2.1850586-3.9101562l1.4951172-2.6450195 c1.0727539-2.0698242,2.4150391-4.1777344,4.0249023-6.324707c1.6103516-2.1455078,2.6054688-3.4501953,2.9902344-3.9101562 c1.4555664-1.8398438,2.8749924-3.9282227,4.2548752-6.2675781c1.3798828-2.3378906,2.2602539-3.8525391,2.6450195-4.5424805 c0.612793-0.612793,1.1499023-0.9199219,1.6098633-0.9199219c0.3828125,0,1.0351562,0.2695312,1.9550781,0.8051758 c0.612793,0.3842773,0.9199219,0.9970703,0.9199219,1.8398438c0,0.9970703-0.4223633,2.109375-1.2646484,3.3349609 c-0.9975586,1.3046875-1.8598633,2.4921875-2.5878906,3.5649414c-0.7294922,1.074707-1.3618164,1.9946289-1.8974609,2.7602539 c-0.7670898,1.3041992-1.6494141,2.6445312-2.6450195,4.0249023c-0.3842773,0.5371094-0.574707,0.9970703-0.574707,1.3798828 l0.1147461,1.1499023c0.3828125,0,0.612793-0.0375977,0.6899414-0.1147461c1.840332-1.2255859,3.1806641-2.1850586,4.0253906-2.875 c1.9150391-1.6103516,4.1201172-3.2382812,6.6123047-4.8876953c2.4902344-1.6474609,4.9628906-3.2001953,7.4174805-4.6572266 c1.6098633-0.9956055,3.0654297-1.7250977,4.3701172-2.1850586c0.2299805-0.0756836,0.6503906-0.1152344,1.2646484-0.1152344 c0.765625,0,2.1850586,0.1923828,4.2553711,0.5751953c0.612793,0.2299805,0.9575195,0.4599609,1.034668,0.6899414 l-0.1147461,0.4599609c-0.0771484,0.3842773-0.3452148,0.8823242-0.8051758,1.4951172 c-1.6098633,2.4545898-2.5297852,3.8720703-2.7597656,4.2548828c-0.2299805,0.3842773-0.4799805,0.9399414-0.7475586,1.6674805 c-0.2695312,0.7294922-0.5175781,1.3222656-0.7475586,1.7822266l-2.5297852,4.6000977l-2.4150391,4.2553711l-1.4951172,3.1049805 c-0.0771484,0.1542969-0.1152344,0.3447266-0.1152344,0.574707c0,0.3847656,0.2299805,0.5751953,0.6899414,0.5751953 c0.4604492,0,0.9204102-0.152832,1.3803711-0.4599609c2.6054688-1.3803711,6.2099609-3.6801758,10.8100586-6.9003906 c3.7553711-2.8354492,7.090332-5.0200195,10.0048828-6.5546875c0.2299805-0.152832,0.6699219-0.4023438,1.3222656-0.7475586 c0.6503906-0.3452148,1.0927734-0.4780273,1.3227539-0.4023438c0.5351562,0.3071289,0.8046875,0.8046875,0.8046875,1.4946289 c0,0.6147461-0.1723633,1.2470703-0.5170898,1.8974609c-0.3452148,0.6523438-0.8251953,1.1699219-1.4375,1.5527344 c-1.4575195,1.074707-3.8149414,2.7797852-7.0727539,5.1176758c-3.2592773,2.3393555-6.3071289,4.4667969-9.1425781,6.3823242 l-2.9897461,2.1850586c-2.4545898,1.8398438-4.5048828,3.2197266-6.152832,4.1401367 c-1.6494141,0.9199219-3.5844727,1.5722656-5.8071289,1.9545898 C138.9536438,71.6845703,138.4756165,71.2045898,138.1308899,70.3222656z"></path> <path fill="#89181A" d="M78.0430069,120.4145508c-0.4599609,0-0.8442383-0.1523438-1.1499023-0.4599609 c-1.9926758-1.609375-2.9897461-3.6025391-2.9897461-5.9794922c0-0.765625,0.1147461-1.5332031,0.3447266-2.2998047 c0.7675781-2.453125,1.534668-4.4082031,2.300293-5.8652344c4.0625-7.0527344,9.0454102-12.8798828,14.949707-17.4799805 c0.8427734-0.612793,2.1850586-1.3798828,4.0249023-2.300293c0.765625-0.3823242,1.6855469-0.574707,2.7602539-0.574707 c1.8398438,0,3.4106445,0.6323242,4.7148438,1.8974609c1.3027344,1.2651367,1.9926758,2.8569336,2.0703125,4.7719727 c0,0.7675781,0.0375977,1.3427734,0.1147461,1.7255859c0.152832,1.3046875-0.2695312,2.6074219-1.2651367,3.9101562 c-0.7670898,1.2265625-1.5341797,2.6845703-2.2998047,4.3701172c-0.1547852,0.2294922-0.5371094,0.9589844-1.1499023,2.1845703 l-3.9101562,7.3603516c-0.0771484,0.1542969-0.2695312,0.5175781-0.5751953,1.0917969 c-0.3071289,0.5751953-0.3842773,1.0546875-0.2299805,1.4375c0.0756836,0.1552734,0.190918,0.2304688,0.3452148,0.2304688 c0.2299805,0,0.6899414-0.3447266,1.3798828-1.0351562c2.0703125-1.8398438,5.3276367-4.2158203,9.7749023-7.1298828 l8.625-5.6347656c0.5356445-0.3828125,1.3027344-0.9199219,2.300293-1.6103516 c0.9956055-0.6894531,1.8774414-1.2255859,2.6450195-1.6103516c0.152832-0.0751953,0.5551758-0.3046875,1.2075195-0.6894531 c0.6503906-0.3828125,1.0922852-0.4980469,1.3222656-0.3447266c0.5356445,0.3066406,0.8051758,0.8046875,0.8051758,1.4941406 c0,0.6152344-0.1923828,1.2275391-0.5751953,1.8408203c-0.3842773,0.6142578-0.8442383,1.1123047-1.3798828,1.4951172 c-1.3798828,1.0742188-3.7197266,2.7792969-7.0151367,5.1171875c-3.296875,2.3398438-6.3642578,4.4667969-9.199707,6.3828125 l-3.6801758,2.6445312l-4.2548828,3.1054688c-0.6899414,0.5371094-1.4951172,0.9199219-2.4150391,1.1494141 c-0.2299805,0.0771484-0.5751953,0.1152344-1.0351562,0.1152344c-0.9199219,0-1.6098633-0.5351562-2.0698242-1.6103516 c-0.0771484-0.1523438-0.2299805-0.4775391-0.4599609-0.9775391c-0.2299805-0.4970703-0.3452148-1.0917969-0.3452148-1.7822266 l0.2299805-1.8398438c0.0756836-1.1503906,0.3828125-2.4150391,0.9199219-3.7949219 c0.5356445-1.3798828,0.765625-2.0703125,0.6904297-2.0703125c-0.6147461,0.0771484-3.6425781,2.7597656-9.0854492,8.0498047 l-2.9897461,2.7607422c-0.3071289,0.3066406-0.7475586,0.6142578-1.3227539,0.9199219 c-0.574707,0.3066406-1.0166016,0.5742188-1.3222656,0.8046875 C78.6182022,120.3393555,78.348671,120.4145508,78.0430069,120.4145508z M80.3432999,113.1704102 c0.3051758-0.0761719,0.574707-0.3056641,0.8046875-0.6904297l2.1850586-1.9550781 c0.9199219-0.9199219,2.300293-2.1455078,4.1401367-3.6796875c2.0698242-1.6855469,4.0625-3.5654297,5.9799805-5.6347656 c1.9155273-2.0703125,3.027832-3.2578125,3.3349609-3.5654297c1.2255859-1.3027344,2.3378906-2.6455078,3.3349609-4.0253906 c0.765625-0.9951172,1.1499023-1.9550781,1.1499023-2.875c0-0.5351562-0.1918945-0.9951172-0.574707-1.3798828 c-0.3847656-0.3056641-0.8447266-0.4599609-1.3798828-0.4599609c-0.6147461,0-1.4575195,0.3076172-2.5302734,0.9199219 c-1.6098633,0.9970703-3.8720703,2.7226562-6.7851562,5.1748047c-1.5341797,1.3046875-2.9321289,2.7607422-4.1972656,4.3701172 c-1.2651367,1.6103516-2.7797852,3.6806641-4.5424805,6.2099609c-1.3046875,1.8408203-2.1474609,4.2558594-2.5302734,7.2451172 l0.3452148,0.9199219C79.5381241,113.6694336,79.9585342,113.4770508,80.3432999,113.1704102z"></path> <path fill="#89181A" d="M93.5683975,151.2348633c-0.5356445-0.6894531-0.8051758-1.4189453-0.8051758-2.1845703 c0-0.4599609,0.1923828-1.4580078,0.5751953-2.9902344c0.4599609-0.9970703,0.7475586-1.6103516,0.8623047-1.8398438 c0.1152344-0.2304688,0.402832-0.8447266,0.862793-1.8398438l1.1499023-2.7607422 c0.3071289-0.7666016,1.0922852-2.5869141,2.3574219-5.4619141s2.5874023-5.5,3.9672852-7.8779297l4.1401367-7.4746094 c0.5375977-1.0732422,1.4194336-2.6826172,2.6450195-4.8300781c0.9199219-1.5332031,2.0703125-3.2197266,3.4501953-5.0605469 l1.4951172-2.0693359c1.2250977-1.9160156,3.3725586-5.5576172,6.4399414-10.9248047 c1.6098633-2.7607422,4.0249023-6.3251953,7.2446289-10.6953125c0.8427658-1.3027344,1.9550705-1.9550781,3.3349533-1.9550781 c0.8427734,0,1.6103516,0.1923828,2.300293,0.5751953c0.6899414,0.3071289,1.2075195,0.6323242,1.5522461,0.9770508 c0.3452148,0.3452148,0.5175781,0.8251953,0.5175781,1.4375c-0.0771484,0.6904297-0.2875977,1.2470703-0.6323242,1.6679688 c-0.3452148,0.4213867-0.7670898,0.8051758-1.2651367,1.1499023c-0.4995117,0.3447266-0.8623047,0.6328125-1.0922852,0.8623047 c-0.3847656,0.1542969-0.5751953,0.3847656-0.5751953,0.6904297c0,0.5371094,0.4204102,0.8046875,1.2651367,0.8046875 c1.6098633,0.3076172,3.1230469,0.8818359,4.5424805,1.7246094c1.4174805,0.8447266,2.5478516,1.9179688,3.3925781,3.2207031 l0.4599609,0.8046875c0.5351562,1.0742188,0.8046875,2.2998047,0.8046875,3.6796875 c0,2.3779297-0.8442383,4.7548828-2.5297852,7.1298828c-1.6875,2.3779297-3.6420898,4.2548828-5.8652344,5.6357422 c-1.6870117,1.0742188-2.6445312,1.6865234-2.875,1.8398438c-1.3041992,0.9970703-2.684082,1.7441406-4.1396408,2.2421875 c-1.4575195,0.5-2.8569336,0.8828125-4.1977539,1.1503906c-1.3422852,0.2695312-2.2045898,0.4414062-2.5874023,0.5175781 c-0.7670898,0.0771484-1.6298828,0.1142578-2.5874023,0.1142578c-0.9594727,0-1.6298828,0-2.0126953,0v-0.2294922 l-1.4946289-0.2304688h-0.3452148c-0.765625,0-1.3027344,0.2695312-1.6098633,0.8056641 c-0.5356445,0.9199219-0.8427734,1.4570312-0.9199219,1.609375l-2.4150391,4.3701172 c-0.4599609,0.8447266-1.3408203,2.4921875-2.6450195,4.9453125c-1.3027344,2.4521484-2.4150391,4.7529297-3.3349609,6.8994141 c-0.4604492,1.1503906-1.0351562,2.4150391-1.7250977,3.7958984c-0.6899414,1.4550781-1.1679688,2.625-1.4375,3.5068359 c-0.2680664,0.8808594-0.5932617,2.3183594-0.9775391,4.3125l-0.2299805,0.6904297 c-0.3056641,1.0722656-0.6704102,1.7998047-1.0927734,2.1845703c-0.4204102,0.3828125-1.0527344,0.4980469-1.8974609,0.3447266 C94.7954483,152.3452148,94.1055069,151.925293,93.5683975,151.2348633z M134.5083313,105.465332 c0.4599609-0.5361328,0.9956055-1.4179688,1.6098633-2.6455078v-0.3447266 c0.2299805-0.3828125,0.3452148-0.765625,0.3452148-1.1503906v-0.2294922c0-0.9960938-0.4223633-1.8398438-1.2651367-2.5302734 c-0.9199219-0.8427734-2.5297852-1.7246094-4.8300781-2.6445312h-0.2299805l-0.2299805,0.1142578l-5.2900314,5.8652344 c-0.4599609,0.5371094-1.0742188,1.3427734-1.8398438,2.4150391l-2.7597656,3.4501953 c-0.9975586,1.2275391-1.8798828,2.7216797-2.6450195,4.484375c-0.1547852,0.4609375-0.2299805,0.7304688-0.2299805,0.8056641 c0,0.3847656,0.1723633,0.671875,0.5170898,0.8623047c0.3452148,0.1923828,0.8232422,0.25,1.4375,0.1728516 C125.2309952,113.324707,130.3681946,110.449707,134.5083313,105.465332z"></path> <path fill="#89181A" d="M124.2729874,151.2348633c-0.5356445-0.6894531-0.8051758-1.4189453-0.8051758-2.1845703 c0-0.4599609,0.1923828-1.4580078,0.5751953-2.9902344c0.4599609-0.9970703,0.7475586-1.6103516,0.8623047-1.8398438 c0.1152344-0.2304688,0.402832-0.8447266,0.862793-1.8398438l1.1499023-2.7607422 c0.3071289-0.7666016,1.0922775-2.5869141,2.3574142-5.4619141s2.5874023-5.5,3.9672852-7.8779297l4.1401367-7.4746094 c0.5375977-1.0732422,1.4194336-2.6826172,2.6450195-4.8300781c0.9199219-1.5332031,2.0703125-3.2197266,3.4501953-5.0605469 l1.4951172-2.0693359c1.2250977-1.9160156,3.3725586-5.5576172,6.4399414-10.9248047 c1.6098633-2.7607422,4.0249023-6.3251953,7.2446289-10.6953125c0.8427734-1.3027344,1.9550781-1.9550781,3.3349609-1.9550781 c0.8427734,0,1.6103516,0.1923828,2.300293,0.5751953c0.6899414,0.3071289,1.2075195,0.6323242,1.5522461,0.9770508 c0.3452148,0.3452148,0.5175781,0.8251953,0.5175781,1.4375c-0.0771484,0.6904297-0.2875977,1.2470703-0.6323242,1.6679688 c-0.3452148,0.4213867-0.7670898,0.8051758-1.2651367,1.1499023c-0.4995117,0.3447266-0.8623047,0.6328125-1.0922852,0.8623047 c-0.3847656,0.1542969-0.5751953,0.3847656-0.5751953,0.6904297c0,0.5371094,0.4204102,0.8046875,1.2651367,0.8046875 c1.6098633,0.3076172,3.1230469,0.8818359,4.5424805,1.7246094c1.4174805,0.8447266,2.5478516,1.9179688,3.3925781,3.2207031 l0.4599609,0.8046875c0.5351562,1.0742188,0.8046875,2.2998047,0.8046875,3.6796875 c0,2.3779297-0.8442383,4.7548828-2.5297852,7.1298828c-1.6875,2.3779297-3.6420898,4.2548828-5.8652344,5.6357422 c-1.6870117,1.0742188-2.6445312,1.6865234-2.875,1.8398438c-1.3041992,0.9970703-2.684082,1.7441406-4.1396484,2.2421875 c-1.4575195,0.5-2.8569336,0.8828125-4.1977539,1.1503906c-1.3422852,0.2695312-2.2045898,0.4414062-2.5874023,0.5175781 c-0.7670898,0.0771484-1.6298828,0.1142578-2.5874023,0.1142578c-0.9594727,0-1.6298828,0-2.0126953,0v-0.2294922 l-1.4946289-0.2304688h-0.3452148c-0.765625,0-1.3027344,0.2695312-1.6098633,0.8056641 c-0.5356445,0.9199219-0.8427734,1.4570312-0.9199219,1.609375l-2.4150391,4.3701172 c-0.4599609,0.8447266-1.3408203,2.4921875-2.6450195,4.9453125c-1.3027344,2.4521484-2.4150391,4.7529297-3.3349609,6.8994141 c-0.4604492,1.1503906-1.0351562,2.4150391-1.7250977,3.7958984c-0.6899414,1.4550781-1.1679688,2.625-1.4375,3.5068359 c-0.2680664,0.8808594-0.5932617,2.3183594-0.9775391,4.3125l-0.2299805,0.6904297 c-0.3056641,1.0722656-0.6704102,1.7998047-1.0927734,2.1845703c-0.4204025,0.3828125-1.0527267,0.4980469-1.8974533,0.3447266 C125.5000381,152.3452148,124.8100967,151.925293,124.2729874,151.2348633z M165.2129211,105.465332 c0.4599609-0.5361328,0.9956055-1.4179688,1.6098633-2.6455078v-0.3447266 c0.2299805-0.3828125,0.3452148-0.765625,0.3452148-1.1503906v-0.2294922c0-0.9960938-0.4223633-1.8398438-1.2651367-2.5302734 c-0.9199219-0.8427734-2.5297852-1.7246094-4.8300781-2.6445312h-0.2299805l-0.2299805,0.1142578l-5.2900391,5.8652344 c-0.4599609,0.5371094-1.0742188,1.3427734-1.8398438,2.4150391l-2.7597656,3.4501953 c-0.9975586,1.2275391-1.8798828,2.7216797-2.6450195,4.484375c-0.1547852,0.4609375-0.2299805,0.7304688-0.2299805,0.8056641 c0,0.3847656,0.1723633,0.671875,0.5170898,0.8623047c0.3452148,0.1923828,0.8232422,0.25,1.4375,0.1728516 C155.9355774,113.324707,161.0727844,110.449707,165.2129211,105.465332z"></path> <path fill="#89181A" d="M180.0473938,119.9545898c-2.3769531,0-4.1396484-1.2646484-5.2900391-3.7949219 c-0.9951172-2.2226562-1.4946289-4.3701172-1.4946289-6.4394531c0-1.4560547,0.1918945-2.7207031,0.574707-3.7949219 c0.5375977-1.4560547,1.2470703-2.7978516,2.1274414-4.0253906c0.8808594-1.2255859,2.050293-2.6445312,3.5078125-4.2548828 l1.6098633-1.8398438c3.2954102-3.9853516,6.515625-6.9375,9.6601562-8.8549805 c1.6850586-0.9204102,3.0273438-1.3803711,4.0249023-1.3803711c0.3828125,0,1.0351562,0.1547852,1.9550781,0.4599609 c1.9155273,0.6904297,3.237793,1.5151367,3.9672852,2.4726562c0.7280273,0.9599609,1.0927734,2.3193359,1.0927734,4.0830078 c0,1.6865234-0.4604492,3.2392578-1.3803711,4.6572266c-0.9199219,1.4189453-2.1469727,2.4345703-3.6796875,3.046875 c-4.7548828,1.6103516-7.8203125,2.6074219-9.2001953,2.9902344c-0.7670898,0.2304688-1.6870117,0.4794922-2.7597656,0.7480469 c-1.074707,0.2695312-1.9174805,0.4794922-2.5302734,0.6318359c-0.8442383,0.1552734-1.3422852,0.4228516-1.4951172,0.8056641 c-1.4570312,2.6064453-2.1845703,4.7919922-2.1845703,6.5546875c0,0.6904297,0.0375977,1.1894531,0.1147461,1.4951172 c0.2299805,1.3046875,0.8803711,1.9550781,1.9550781,1.9550781c1.9155273,0,3.9101562-0.8427734,5.9799805-2.5302734 c2.0698242-1.6855469,3.1425781-2.5673828,3.2197266-2.6445312l4.6000977-2.9902344l1.840332-1.4951172 c0.6899414-0.6904297,1.4550781-1.3027344,2.2998047-1.8398438c0.3828125-0.3056641,1.590332-1.2080078,3.6225586-2.703125 c2.0302734-1.4941406,4.0429688-2.7773438,6.0375977-3.8525391c0.2299805-0.1523438,0.6699219-0.4023438,1.3222656-0.7470703 c0.6503906-0.3447266,1.0927734-0.4404297,1.3227539-0.2871094c0.5351562,0.3066406,0.8046875,0.7666016,0.8046875,1.3798828 c0,0.5371094-0.1918945,1.1494141-0.574707,1.8398438c-0.3847656,0.6894531-0.8447266,1.2275391-1.3803711,1.6103516 c-1.5341797,1.2265625-5.0219727,3.6796875-10.4648438,7.359375c-5.9799805,4.140625-9.7373047,6.8242188-11.2700195,8.0498047 c-0.6899414,0.5380859-1.4951172,1.1123047-2.4150391,1.7255859c-0.9199219,0.6142578-1.7646484,1.0351562-2.5297852,1.2646484 c-0.2299805,0.0771484-0.5751953,0.1152344-1.0351562,0.1152344 C181.08255,119.8793945,180.4302063,119.9545898,180.0473938,119.9545898z M190.167511,98.6801758 c0.3828125-0.0751953,1.0351562-0.2480469,1.9550781-0.5175781c0.9199219-0.2675781,1.7250977-0.5927734,2.4150391-0.9775391 c1.4555664-0.6132812,2.4150391-1.3798828,2.875-2.2998047c0.152832-0.3056641,0.152832-0.8808594,0-1.7255859 c-0.1547852-0.8427734-0.402832-1.5703125-0.7475586-2.1845703c-0.3452148-0.6132812-0.7871094-0.8046875-1.3227539-0.5751953 c-1.5341797,0.6904297-3.2197266,1.9550781-5.0595703,3.7949219c-0.4604492,0.3847656-0.9399414,0.7675781-1.4375,1.1503906 c-0.4995117,0.3847656-1.0170898,0.8447266-1.5527344,1.3798828c-0.7670898,0.5371094-1.4570312,1.2275391-2.0698242,2.0703125 c-0.3076172,0.3066406-0.3847656,0.5742188-0.2299805,0.8046875c0.0751953,0.0771484,0.2299805,0.1152344,0.4599609,0.1152344 C186.6025696,99.6391602,188.1728821,99.2944336,190.167511,98.6801758z"></path> <path fill="#89181A" d="M202.3579407,119.0922852c-0.9956055-0.5751953-1.8398438-1.3222656-2.5302734-2.2421875 c-0.1523438-0.2304688-0.3051758-0.5751953-0.4599609-1.0351562c0-0.4599609,0.0395508-0.8427734,0.1152344-1.1503906 c0.6899414-2.6826172,1.6674805-5.3076172,2.9326172-7.8769531c1.2646484-2.5673828,2.9321289-5.5380859,5.0024414-8.9130859 c1.3798828-2.2998047,3.5253906-5.671875,6.4399414-10.1196289l1.3798828-2.0698242 c2.4526367-3.1425781,3.8706055-5.3276367,4.2548828-6.5551758c0.0756836-0.152832,0.1152344-0.3828125,0.1152344-0.6899414 c-0.0771484-0.2299805-0.2299805-0.4023438-0.4599609-0.5175781c-0.2299805-0.1147461-0.4223633-0.1328125-0.5751953-0.0571289 c-0.3071289,0-0.7475586,0.1147461-1.3222656,0.3447266c-0.5751953,0.2299805-1.0546875,0.3452148-1.4375,0.3452148 c-0.4599609,0-1.1894531,0.0771484-2.1850586,0.2299805c-0.9975586,0.1542969-1.7250977,0.1542969-2.1850586,0 c-0.5371094-0.2299805-0.8051758-0.6899414-0.8051758-1.3803711c0-0.5351562,0.1728516-1.0527344,0.5175781-1.5522461 c0.3452148-0.4975586,0.7851562-0.7851562,1.3227539-0.8623047l5.9799805-0.8051758 c1.9926758-0.3828125,3.8701172-1.2255859,5.6347656-2.5302734c0.6899414-0.6123047,1.3027344-1.3798828,1.840332-2.2998047 l3.2197266-5.4047852c0.3828125-0.9204102,0.8803711-1.5708008,1.4951172-1.9550781 c0.3051758-0.152832,0.574707-0.2299805,0.8046875-0.2299805c0.6904297,0,1.5332031,0.4995117,2.5302734,1.4946289 c0.3828125,0.6147461,0.5751953,1.1503906,0.5751953,1.6103516c0,0.6142578-0.2695312,1.3422852-0.8051758,2.1850586 c-0.1547852,0.2299805-0.5571289,0.7294922-1.2075195,1.4946289c-0.6523438,0.7675781-0.9775391,1.4575195-0.9775391,2.0703125 c0,0.6899414,0.4599609,1.1894531,1.3798828,1.4951172c0.3828125,0.0771484,0.9580078,0.1147461,1.7250977,0.1147461 c2.9125977,0,5.0600586,0.6147461,6.4399414,1.8398438c0.152832,0.1547852,0.2299805,0.3076172,0.2299805,0.4599609 c0,0.1547852-0.0395508,0.2695312-0.1147461,0.3452148l-0.3452148,0.5751953l-0.574707,1.034668 c-0.3847656,0.6899414-0.8051758,1.1123047-1.2651367,1.2651367c-0.2299805,0.0771484-0.4223633,0.097168-0.5751953,0.0576172 C238.3135071,77.7695312,238.160675,77.75,238.007843,77.75c-2.6845703-0.2299805-5.0996094-0.3056641-7.2451172-0.2299805 c-0.9970703,0-1.7641602,0.0771484-2.2998047,0.2299805c-0.6147461,0.2299805-1.1699219,0.5751953-1.6674805,1.0351562 c-0.4995117,0.4599609-0.9199219,0.8823242-1.2651367,1.2646484c-0.3447266,0.3847656-0.6323242,0.7294922-0.8623047,1.0351562 c-1.6098633,1.7646484-2.7602539,3.1445312-3.4501953,4.1401367c-0.8442383,1.2270508-2.0322266,3.1445312-3.5649414,5.75 l-1.1499023,1.9550781c-0.5371094,1.0742188-1.1894531,2.1845703-1.9550781,3.3349609 c-1.2270508,1.8398438-2.875,5.0996094-4.9448242,9.7744141c-1.074707,2.4550781-1.9174805,4.2949219-2.5302734,5.5205078 c-0.0771484,0.0771484-0.1147461,0.1923828-0.1147461,0.3447266c0,0.1542969,0.0751953,0.2304688,0.2299805,0.2304688 l0.3447266,0.1142578c0.2299805,0,0.6503906-0.1904297,1.2651367-0.5742188 c5.6728516-4.0634766,12.840332-8.7783203,21.5048828-14.1455078l0.1152344-0.1152344 c0.152832-0.0751953,0.5551758-0.3046875,1.2075195-0.6894531c0.6503906-0.3828125,1.0922852-0.4980469,1.3222656-0.3447266 c0.5356445,0.3066406,0.8051758,0.8046875,0.8051758,1.4941406c0,0.6152344-0.1923828,1.2275391-0.5751953,1.8408203 c-0.3842773,0.6142578-0.8442383,1.1123047-1.3798828,1.4951172c-1.3798828,1.0742188-3.7197266,2.7792969-7.0151367,5.1171875 c-3.296875,2.3398438-6.3642578,4.4667969-9.199707,6.3828125l-3.6801758,2.6445312l-4.2548828,3.1054688 c-0.6899414,0.5371094-1.4951172,0.9199219-2.4150391,1.1494141 C204.3130188,119.840332,203.3535461,119.6674805,202.3579407,119.0922852z"></path> <path fill="#89181A" d="M226.9668274,119.840332c-1.3803711,0-2.5102539-0.6708984-3.3925781-2.0126953 c-0.8803711-1.3408203-1.3227539-2.8935547-1.3227539-4.6572266c0-1.3808594,0.2695312-2.5683594,0.8051758-3.5654297 c2.4545898-4.5224609,5.0600586-8.6630859,7.8198242-12.4199219c0.3828125-0.5351562,1.0927734-1.6279297,2.1279297-3.2773438 c1.034668-1.6484375,2.0878906-3.0859375,3.1621094-4.3125c1.0727539-1.2255859,2.0703125-1.8779297,2.9902344-1.9550781 c0.765625-0.152832,1.7250977-0.0756836,2.875,0.2299805c1.1499023,0.3071289,1.7250977,0.7670898,1.7250977,1.3793945 c0,0.2304688-0.4599609,0.6728516-1.3803711,1.3232422c-0.9199219,0.6523438-1.4946289,1.0917969-1.7246094,1.3222656 c-2.2246094,2.2246094-4.6396484,5.3671875-7.2451172,9.4296875c-0.3847656,0.6904297-1.0351562,1.7255859-1.9550781,3.1054688 l-2.0698242,3.2197266c-0.7675781,1.5341797-1.2651367,2.7226562-1.4951172,3.5654297 c-0.0771484,0.2294922-0.1152344,0.6523438-0.1152344,1.2646484c0,1.0742188,0.4980469,1.3417969,1.4951172,0.8046875 l2.1850586-1.3798828c2.4526367-1.5322266,4.2929688-2.7207031,5.5200195-3.5644531 c3.5253906-2.2226562,9.0849609-5.8652344,16.6748047-10.9257812c0.152832-0.0751953,0.5751953-0.3251953,1.2651367-0.7470703 c0.6899414-0.4208984,1.1499023-0.5175781,1.3798828-0.2871094c0.5356445,0.3066406,0.8051758,0.7666016,0.8051758,1.3798828 c0,0.5371094-0.1923828,1.1494141-0.5751953,1.8398438c-0.3842773,0.6894531-0.8442383,1.2275391-1.3798828,1.6103516 c-1.4570312,1.0742188-3.8344727,2.7792969-7.1298828,5.1171875c-3.2973633,2.3398438-6.3647461,4.4667969-9.2001953,6.3828125 c-3.5273438,2.6064453-6.1723633,4.5244141-7.9350586,5.75c-0.5371094,0.4599609-1.3422852,0.84375-2.4150391,1.1494141 C227.6943665,119.7641602,227.1968079,119.840332,226.9668274,119.840332z M246.401886,80.1650391 c-0.4599609,0-0.8447266-0.2299805-1.1503906-0.6899414c-0.5371094-0.5356445-0.8046875-1.3027344-0.8046875-2.300293 l0.1147461-1.6098633c0.0756836-0.3828125,0.2680664-0.8803711,0.5751953-1.4951172l5.4047852-8.0498047 c0.5356445-0.6899414,1.2255859-1.2255859,2.0703125-1.6098633c0.5351562-0.3056641,1.034668-0.4599609,1.4946289-0.4599609 c0.4604492,0,1.1108398,0.3071289,1.9550781,0.9199219c1.3803711,1.2270508,2.0703125,2.1850586,2.0703125,2.875 s-0.9204102,1.4951172-2.7602539,2.4150391c-1.6098633,0.7670898-2.9897461,2.0322266-4.1401367,3.7949219l-3.7949219,5.5200195 C247.129425,79.9350586,246.7842102,80.1650391,246.401886,80.1650391z"></path> <path fill="#89181A" d="M248.4712219,119.0922852c-0.9956055-0.5751953-1.8398438-1.3222656-2.5302734-2.2421875 c-0.1523438-0.2304688-0.3051758-0.5751953-0.4599609-1.0351562c0-0.4599609,0.0395508-0.8427734,0.1152344-1.1503906 c0.6899414-2.6826172,1.6674805-5.3076172,2.9326172-7.8769531c1.2646484-2.5673828,2.9321289-5.5380859,5.0024414-8.9130859 c1.3798828-2.2998047,3.5253906-5.671875,6.4399414-10.1196289l1.3798828-2.0698242 c2.4526367-3.1425781,3.8706055-5.3276367,4.2548828-6.5551758c0.0756836-0.152832,0.1152344-0.3828125,0.1152344-0.6899414 c-0.0771484-0.2299805-0.2299805-0.4023438-0.4599609-0.5175781c-0.2299805-0.1147461-0.4223633-0.1328125-0.5751953-0.0571289 c-0.3071289,0-0.7475586,0.1147461-1.3222656,0.3447266c-0.5751953,0.2299805-1.0546875,0.3452148-1.4375,0.3452148 c-0.4599609,0-1.1894531,0.0771484-2.1850586,0.2299805c-0.9975586,0.1542969-1.7250977,0.1542969-2.1850586,0 c-0.5371094-0.2299805-0.8051758-0.6899414-0.8051758-1.3803711c0-0.5351562,0.1728516-1.0527344,0.5175781-1.5522461 c0.3452148-0.4975586,0.7851562-0.7851562,1.3227539-0.8623047l5.9799805-0.8051758 c1.9926758-0.3828125,3.8701172-1.2255859,5.6347656-2.5302734c0.6899414-0.6123047,1.3027344-1.3798828,1.840332-2.2998047 l3.2197266-5.4047852c0.3828125-0.9204102,0.8803711-1.5708008,1.4951172-1.9550781 c0.3051758-0.152832,0.574707-0.2299805,0.8046875-0.2299805c0.6904297,0,1.5332031,0.4995117,2.5302734,1.4946289 c0.3828125,0.6147461,0.5751953,1.1503906,0.5751953,1.6103516c0,0.6142578-0.2695312,1.3422852-0.8051758,2.1850586 c-0.1547852,0.2299805-0.5571289,0.7294922-1.2075195,1.4946289c-0.6523438,0.7675781-0.9775391,1.4575195-0.9775391,2.0703125 c0,0.6899414,0.4599609,1.1894531,1.3798828,1.4951172c0.3828125,0.0771484,0.9580078,0.1147461,1.7250977,0.1147461 c2.9125977,0,5.0600586,0.6147461,6.4399414,1.8398438c0.152832,0.1547852,0.2299805,0.3076172,0.2299805,0.4599609 c0,0.1547852-0.0395508,0.2695312-0.1147461,0.3452148l-0.3452148,0.5751953l-0.574707,1.034668 c-0.3847656,0.6899414-0.8051758,1.1123047-1.2651367,1.2651367c-0.2299805,0.0771484-0.4223633,0.097168-0.5751953,0.0576172 C284.4267883,77.7695312,284.2739563,77.75,284.1211243,77.75c-2.6845703-0.2299805-5.0996094-0.3056641-7.2451172-0.2299805 c-0.9970703,0-1.7641602,0.0771484-2.2998047,0.2299805c-0.6147461,0.2299805-1.1699219,0.5751953-1.6674805,1.0351562 c-0.4995117,0.4599609-0.9199219,0.8823242-1.2651367,1.2646484c-0.3447266,0.3847656-0.6323242,0.7294922-0.8623047,1.0351562 c-1.6098633,1.7646484-2.7602539,3.1445312-3.4501953,4.1401367c-0.8442383,1.2270508-2.0322266,3.1445312-3.5649414,5.75 l-1.1499023,1.9550781c-0.5371094,1.0742188-1.1894531,2.1845703-1.9550781,3.3349609 c-1.2270508,1.8398438-2.875,5.0996094-4.9448242,9.7744141c-1.074707,2.4550781-1.9174805,4.2949219-2.5302734,5.5205078 c-0.0771484,0.0771484-0.1147461,0.1923828-0.1147461,0.3447266c0,0.1542969,0.0751953,0.2304688,0.2299805,0.2304688 l0.3447266,0.1142578c0.2299805,0,0.6503906-0.1904297,1.2651367-0.5742188 c5.6728516-4.0634766,12.840332-8.7783203,21.5048828-14.1455078l0.1152344-0.1152344 c0.152832-0.0751953,0.5551758-0.3046875,1.2075195-0.6894531c0.6503906-0.3828125,1.0922852-0.4980469,1.3222656-0.3447266 c0.5356445,0.3066406,0.8051758,0.8046875,0.8051758,1.4941406c0,0.6152344-0.1923828,1.2275391-0.5751953,1.8408203 c-0.3842773,0.6142578-0.8442383,1.1123047-1.3798828,1.4951172c-1.3798828,1.0742188-3.7197266,2.7792969-7.0151367,5.1171875 c-3.296875,2.3398438-6.3642578,4.4667969-9.199707,6.3828125l-3.6801758,2.6445312l-4.2548828,3.1054688 c-0.6899414,0.5371094-1.4951172,0.9199219-2.4150391,1.1494141 C250.4263,119.840332,249.4668274,119.6674805,248.4712219,119.0922852z"></path> <path fill="#89181A" d="M270.3774719,117.7124023c-0.5751953-1.0351562-0.8623047-2.1650391-0.8623047-3.3925781 l0.1147461-1.0351562c-0.0751953-1.9921875,0.4599609-4.0625,1.6098633-6.2099609l1.9550781-3.5644531 c0.9956055-2.1455078,2.0307617-4.0634766,3.1049805-5.75c0.2299805-0.3056641,0.9003906-1.3798828,2.0126953-3.2207031 c1.1103516-1.8398438,2.3574219-3.4492188,3.7373047-4.8291016c0.9956055-0.9960938,1.840332-1.7436523,2.5302734-2.2431641 c0.6899414-0.4975586,1.4946289-0.7470703,2.4150391-0.7470703c0.4599609,0,0.9951172,0.1147461,1.6098633,0.3447266 c0.6899414,0.3071289,1.2075195,0.5947266,1.5522461,0.862793c0.3452148,0.2695312,0.7475586,0.7094727,1.2075195,1.3217773 c0.612793,0.9208984,0.9204102,1.8798828,0.9204102,2.875c0,1.3046875-0.3076172,2.9150391-0.9204102,4.8300781 c-1.2270508,3.9873047-2.9897461,7.5908203-5.2900391,10.8105469c-1.1499023,1.7646484-2.2998047,3.3164062-3.449707,4.6572266 c-1.1499023,1.3427734-2.8374023,3.1630859-5.0600586,5.4628906c-1.3798828,1.3798828-2.6450195,2.0693359-3.7949219,2.0693359 c-0.2299805,0-0.6523438-0.0751953-1.2651367-0.2294922C271.6621399,119.4194336,270.9526672,118.7475586,270.3774719,117.7124023z M286.1899719,98.449707c0.2299805-0.3828125,0.4404297-0.9375,0.6323242-1.6669922 c0.1904297-0.7275391,0.3632812-1.3603516,0.5175781-1.8974609l0.1152344-0.4599609 c0-0.3828125-0.1923828-0.6503906-0.5751953-0.8056641c-0.3071289,0-0.6142578,0.1552734-0.9199219,0.4599609 c-5.0600586,5.0605469-8.472168,10.1972656-10.2348633,15.4101562c-0.1547852,0.4599609-0.2299805,0.8447266-0.2299805,1.1503906 c0,0.3847656,0.1904297,0.5751953,0.574707,0.5751953c0.3828125,0,0.765625-0.1904297,1.1499023-0.5751953 C280.4399719,107.4204102,283.4302063,103.3569336,286.1899719,98.449707z"></path> </g> </svg> 